<svg xmlns="http://www.w3.org/2000/svg" width="85" height="25" viewBox="0 0 85 25">
  <g fill="none" fill-rule="evenodd" transform="translate(1)">
    <g stroke="#FF4600" stroke-linecap="round" stroke-linejoin="round" stroke-width="2" transform="translate(0 1)">
      <path d="M18,14 L18,6 C17.9992679,5.28620161 17.6181681,4.62689901 17,4.27 L10,0.27 C9.38119785,-0.0872655899 8.61880215,-0.0872655899 8,0.27 L1,4.27 C0.38183192,4.62689901 0.00073214874,5.28620161 0,6 L0,14 C0.00073214874,14.7137984 0.38183192,15.373101 1,15.73 L8,19.73 C8.61880215,20.0872656 9.38119785,20.0872656 10,19.73 L17,15.73 C17.6181681,15.373101 17.9992679,14.7137984 18,14 Z"/>
      <polyline points="4.5 2.21 9 4.81 13.5 2.21"/>
      <polyline points="4.5 17.79 4.5 12.6 0 10"/>
      <polyline points="18 10 13.5 12.6 13.5 17.79"/>
      <polyline points=".27 4.96 9 10.01 17.73 4.96"/>
      <line x1="9" x2="9" y1="20.08" y2="10"/>
    </g>
    <path fill="#000" fill-rule="nonzero" d="M29.525,14.95 L35.45,14.95 L35.45,17.65 L26,17.65 L26,1.77635684e-15 L29.525,1.77635684e-15 L29.525,14.95 Z M43.95,3.625 C45.3000068,3.625 46.5124946,3.9083305 47.5875,4.475 C48.6625054,5.0416695 49.5083303,5.86249463 50.125,6.9375 C50.7416698,8.01250538 51.05,9.27499275 51.05,10.725 C51.05,12.1750073 50.7416698,13.433328 50.125,14.5 C49.5083303,15.566672 48.6625054,16.3874971 47.5875,16.9625 C46.5124946,17.5375029 45.3000068,17.825 43.95,17.825 C42.5999933,17.825 41.3875054,17.5375029 40.3125,16.9625 C39.2374946,16.3874971 38.3916698,15.566672 37.775,14.5 C37.1583303,13.433328 36.85,12.1750073 36.85,10.725 C36.85,9.27499275 37.1583303,8.01250538 37.775,6.9375 C38.3916698,5.86249463 39.2374946,5.0416695 40.3125,4.475 C41.3875054,3.9083305 42.5999933,3.625 43.95,3.625 Z M43.95,6.675 C42.9666618,6.675 42.1333368,7.02082988 41.45,7.7125 C40.7666633,8.40417013 40.425,9.40832675 40.425,10.725 C40.425,12.0416733 40.7666633,13.0458299 41.45,13.7375 C42.1333368,14.4291701 42.9666618,14.775 43.95,14.775 C44.9333383,14.775 45.7666633,14.4291701 46.45,13.7375 C47.1333368,13.0458299 47.475,12.0416733 47.475,10.725 C47.475,9.40832675 47.1333368,8.40417013 46.45,7.7125 C45.7666633,7.02082988 44.9333383,6.675 43.95,6.675 Z M58.975,3.625 C60.1416725,3.625 61.1416625,3.89999725 61.975,4.45 C62.8083375,5.00000275 63.3999983,5.741662 63.75,6.675 L63.75,3.8 L67.25,3.8 L67.25,17.7 C67.25,18.9833398 66.9958359,20.1374949 66.4875,21.1625 C65.9791641,22.1875051 65.2208384,22.9916638 64.2125,23.575 C63.2041616,24.1583363 61.9833405,24.45 60.55,24.45 C58.54999,24.45 56.9333395,23.9750048 55.7,23.025 C54.4666605,22.0749953 53.716668,20.7833415 53.45,19.15 L56.925,19.15 C57.125001,19.8500035 57.5124971,20.3958314 58.0875,20.7875 C58.6625029,21.1791686 59.3999955,21.375 60.3,21.375 C61.3333385,21.375 62.1666635,21.0708364 62.8,20.4625 C63.4333365,19.8541636 63.75,18.9333395 63.75,17.7 L63.75,14.75 C63.3999983,15.683338 62.8083375,16.4291639 61.975,16.9875 C61.1416625,17.5458361 60.1416725,17.825 58.975,17.825 C57.8083275,17.825 56.758338,17.5416695 55.825,16.975 C54.891662,16.4083305 54.1625026,15.5875054 53.6375,14.5125 C53.1124974,13.4374946 52.85,12.1750073 52.85,10.725 C52.85,9.27499275 53.1124974,8.01250538 53.6375,6.9375 C54.1625026,5.86249463 54.891662,5.0416695 55.825,4.475 C56.758338,3.9083305 57.8083275,3.625 58.975,3.625 Z M60.075,6.7 C58.9749945,6.7 58.09167,7.05832975 57.425,7.775 C56.75833,8.49167025 56.425,9.47499375 56.425,10.725 C56.425,11.9750063 56.75833,12.9541631 57.425,13.6625 C58.09167,14.3708369 58.9749945,14.725 60.075,14.725 C61.141672,14.725 62.0208299,14.3625036 62.7125,13.6375 C63.4041701,12.9124964 63.75,11.9416728 63.75,10.725 C63.75,9.4916605 63.4041701,8.51250363 62.7125,7.7875 C62.0208299,7.06249638 61.141672,6.7 60.075,6.7 Z M76.85,3.625 C78.2000068,3.625 79.4124946,3.9083305 80.4875,4.475 C81.5625054,5.0416695 82.4083303,5.86249463 83.025,6.9375 C83.6416698,8.01250538 83.95,9.27499275 83.95,10.725 C83.95,12.1750073 83.6416698,13.433328 83.025,14.5 C82.4083303,15.566672 81.5625054,16.3874971 80.4875,16.9625 C79.4124946,17.5375029 78.2000068,17.825 76.85,17.825 C75.4999933,17.825 74.2875054,17.5375029 73.2125,16.9625 C72.1374946,16.3874971 71.2916698,15.566672 70.675,14.5 C70.0583303,13.433328 69.75,12.1750073 69.75,10.725 C69.75,9.27499275 70.0583303,8.01250538 70.675,6.9375 C71.2916698,5.86249463 72.1374946,5.0416695 73.2125,4.475 C74.2875054,3.9083305 75.4999933,3.625 76.85,3.625 Z M76.85,6.675 C75.8666618,6.675 75.0333368,7.02082988 74.35,7.7125 C73.6666633,8.40417013 73.325,9.40832675 73.325,10.725 C73.325,12.0416733 73.6666633,13.0458299 74.35,13.7375 C75.0333368,14.4291701 75.8666618,14.775 76.85,14.775 C77.8333383,14.775 78.6666633,14.4291701 79.35,13.7375 C80.0333368,13.0458299 80.375,12.0416733 80.375,10.725 C80.375,9.40832675 80.0333368,8.40417013 79.35,7.7125 C78.6666633,7.02082988 77.8333383,6.675 76.85,6.675 Z"/>
  </g>
</svg>
